<?xml version="1.0" encoding="utf-8"?>
<!-- Generator: Adobe Illustrator 25.4.1, SVG Export Plug-In . SVG Version: 6.00 Build 0)  -->
<svg version="1.1" id="Layer_1" xmlns="http://www.w3.org/2000/svg" xmlns:xlink="http://www.w3.org/1999/xlink" x="0px" y="0px"
	 viewBox="0 0 348 104" style="enable-background:new 0 0 348 104;" xml:space="preserve">
<style type="text/css">
	.st0{fill:url(#SVGID_1_);}
	.st1{fill:url(#SVGID_00000178906981599536185030000016796139204574462143_);}
	.st2{fill:#A67F62;}
	.st3{fill:none;stroke:#000000;stroke-width:0.5;stroke-miterlimit:10;}
	.st4{fill:url(#SVGID_00000148634240119314505950000013806916892041618581_);}
	.st5{fill:#6D6E71;}
	.st6{fill:#212123;}
	.st7{fill:#326AAE;}
	.st8{fill:#E45921;}
	.st9{fill-rule:evenodd;clip-rule:evenodd;fill:#2F72B8;}
	.st10{fill-rule:evenodd;clip-rule:evenodd;fill:#E45921;}
</style>
<g>
	<g>
		
			<linearGradient id="SVGID_1_" gradientUnits="userSpaceOnUse" x1="196.696" y1="1168.7802" x2="238.2469" y2="1168.7802" gradientTransform="matrix(1 0 0 1 -32.47 -1116.7802)">
			<stop  offset="0.12" style="stop-color:#C7C6CB"/>
			<stop  offset="0.27" style="stop-color:#BCBBC0"/>
			<stop  offset="0.74" style="stop-color:#9D9FA2"/>
			<stop  offset="1" style="stop-color:#929497"/>
		</linearGradient>
		<path class="st0" d="M205.7,76.9v1.9c-2.8,0-5.5,0-8.3,0c-0.7-0.1-1.2-0.5-1.6-1c-1.8-2.8-3.4-5.7-5.1-8.7
			c-1.7-2.9-3.5-5.9-5.2-8.7c-1.6-2.7-3.3-5.4-5-8.1c-1.7-2.8-3.4-5.7-5.1-8.6c-1.7-2.8-3.4-5.5-5-8.2c-1.1-1.8-2.3-3.7-3.4-5.5
			c-0.9-1.5-1.8-3-2.8-4.8h41.3l0.1,1.5c-0.3,0.1-0.8,0.1-1.1,0.2c-1.1,0.1-2.3,0.1-3.4,0c-2.5-0.5-3.8,1-5,2.8
			c-2.1,3.3-4.4,6.5-6.6,9.7c-1.7,2.5-3.3,5-4.8,7.4c-0.2,0.5-0.3,1-0.1,1.5c2.4,3.8,4.8,7.5,7.2,11.4c1.8,2.9,3.5,6,5.3,8.9
			c1.7,2.7,3.5,5.4,5.3,8.1c0.3,0.3,0.7,0.5,1.1,0.5C204.2,76.9,205,76.9,205.7,76.9z M171.8,26.7c3.8,6.3,7.4,12.4,11.3,18.7
			l12.6-18.7H171.8z"/>
		
			<linearGradient id="SVGID_00000150787380596501857760000004903015559363142838_" gradientUnits="userSpaceOnUse" x1="187.1758" y1="1168.7239" x2="225.6529" y2="1168.7239" gradientTransform="matrix(1 0 0 1 -32.47 -1116.7802)">
			<stop  offset="0.12" style="stop-color:#EBC9A4"/>
			<stop  offset="0.44" style="stop-color:#CDA987"/>
			<stop  offset="0.8" style="stop-color:#B18A6C"/>
			<stop  offset="1" style="stop-color:#A67F62"/>
		</linearGradient>
		<path style="fill:url(#SVGID_00000150787380596501857760000004903015559363142838_);" d="M192.3,78.7H154l-0.1-1.9
			c2.3,0,4.4,0,6.5,0c0.6,0,1.1-0.2,1.6-0.7c2-2.8,3.9-5.6,5.9-8.4c2.1-3.2,4.4-6.3,6.5-9.5c0.7-1,1.5-2.1,2-3.2
			c0.2-0.5,0.2-0.9,0-1.2c-1-1.8-2.3-3.6-3.3-5.4c-1.5-2.6-2.9-5.2-4.4-7.7c-1.7-2.9-3.5-5.7-5.2-8.7c-0.9-1.4-1.7-2.8-2.6-4.2
			c-0.3-0.7-1.1-1.1-1.8-1c-1.7,0.1-3.3,0-5.1,0v-1.7c2.3,0,4.6,0,6.9,0c0.6,0.1,1,0.5,1.2,1c1.8,3,3.6,6.1,5.4,9.1
			c1.6,2.7,3.2,5.4,4.8,8.1c1.8,2.9,3.7,5.9,5.4,8.8c1.5,2.5,2.9,5.1,4.4,7.5c1.9,3.2,3.8,6.3,5.7,9.5c1.5,2.4,2.9,4.6,4.2,7.1
			C192.5,76.8,192.3,77.8,192.3,78.7z M178.2,56.3L164,76.8h26.7C186.5,69.8,182.5,63.1,178.2,56.3z"/>
	</g>
	<g>
		<path class="st2" d="M217.3,29.3h9.5c3.8,0,6.8,0.5,8.8,1.4c2,0.9,3.7,2.4,4.8,4.2c1.2,1.9,1.8,4.1,1.8,6.3c0,2-0.6,4.1-1.6,5.9
			c-1.1,1.8-2.7,3.3-4.6,4.3c2.1,0.7,4.1,1.7,5.7,3c1.4,1.1,2.4,2.6,3.2,4.2c0.8,1.7,1.1,3.5,1.1,5.3c0.1,3.7-1.5,7.3-4.3,9.8
			c-2.8,2.6-6.6,3.9-11.4,3.9h-13.2L217.3,29.3z M222,33.9v15.4h2.8c3.4,0,5.9-0.3,7.4-0.9c1.5-0.6,2.8-1.6,3.7-2.9
			c0.9-1.4,1.4-2.9,1.4-4.5c0.1-2-0.8-3.9-2.4-5.2c-1.6-1.2-4.1-1.9-7.4-1.9H222z M222,54.3v18.6h6c3.5,0,6.1-0.3,7.8-1
			c1.6-0.7,3-1.8,3.9-3.3c2.3-3.2,1.9-7.4-0.6-10.4c-1.6-1.7-3.6-2.8-5.7-3.3c-2.8-0.5-5.7-0.7-8.6-0.6L222,54.3z"/>
		<path class="st2" d="M259,29.3h5v18.1l19.3-18.1h6.5l-23.2,21.6l25,26.6h-6.4L264,55v22.4h-5V29.3z"/>
		<path class="st2" d="M347,38.1l-3.8,2.9c-2-2.6-4.6-4.7-7.5-6.2c-3-1.5-6.3-2.1-9.7-2.1c-3.7,0-7.4,0.9-10.7,2.8
			c-3.2,1.8-5.9,4.3-7.7,7.4c-1.8,3.2-2.8,6.9-2.7,10.5c-0.1,5.5,2,10.9,6.1,14.8c4.1,3.9,9.1,5.9,15.3,5.9c6.8,0,12.4-2.6,16.9-7.9
			l3.8,2.9c-2.4,3-5.5,5.5-9,7.1c-3.8,1.7-7.9,2.6-12.1,2.5c-8.4,0-15.1-2.8-19.9-8.4c-4.1-4.7-6.3-10.9-6.1-17.2
			c-0.1-6.8,2.6-13.2,7.4-17.8c5-4.8,11.1-7.2,18.6-7.2c4.2-0.1,8.4,0.9,12.2,2.7C341.6,32.4,344.6,35,347,38.1z"/>
	</g>
</g>
<line class="st3" x1="142.9" y1="12.2" x2="142.9" y2="91.8"/>
<g>
	<g>
		<g>
			
				<linearGradient id="SVGID_00000063599187410002387850000009912869621499548318_" gradientUnits="userSpaceOnUse" x1="12.8506" y1="-1028" x2="68.7506" y2="-1028" gradientTransform="matrix(1 0 0 -1 0 -988.7)">
				<stop  offset="0" style="stop-color:#FCD4D2"/>
				<stop  offset="2.793300e-03" style="stop-color:#1179A6"/>
				<stop  offset="0.379" style="stop-color:#555F8E"/>
				<stop  offset="0.8024" style="stop-color:#9B4374"/>
				<stop  offset="1" style="stop-color:#B7386A"/>
			</linearGradient>
			<path style="fill:url(#SVGID_00000063599187410002387850000009912869621499548318_);" d="M65.9,36.1v11.2c0,0.8,0.7,1.4,1.4,1.4
				c0.8,0,1.4-0.6,1.4-1.4V36.1c0-0.8-0.6-1.4-1.4-1.4S65.9,35.3,65.9,36.1 M15.7,44.2c0-1.3,1.2-2,2.8-2c1.2,0,2,0.2,3.2,0.4v2.9
				c-0.3,0.2-1.2,0.8-3.1,0.8C16.6,46.4,15.7,45.6,15.7,44.2 M14.8,35.2c-0.7,0.3-0.9,0.8-0.9,1.3c0,0.8,0.8,1.4,1.9,1
				c0.7-0.3,1.8-0.6,2.9-0.6c2.1,0,2.9,0.8,2.9,2.5v0.9c-1.2-0.3-2.1-0.4-3.3-0.4c-3.6,0-5.2,1.9-5.3,4.1v0.5
				c0.1,2.5,1.9,4.3,5.4,4.3c2.7,0,4.7-1,5.5-1.5c0.4-0.3,0.5-0.6,0.5-1v-6.8c0-3.5-2.1-5.1-5.4-5.1C17.1,34.4,15.6,34.8,14.8,35.2
				 M41.8,44.2c0-1.3,1.2-2,2.8-2c1.2,0,2,0.2,3.2,0.4v2.9c-0.3,0.2-1.2,0.8-3.1,0.8C42.8,46.4,41.8,45.6,41.8,44.2 M41.1,35.2
				c-0.7,0.3-0.9,0.8-0.9,1.3c0,0.8,0.8,1.4,1.9,1c0.7-0.3,1.8-0.6,2.9-0.6c2,0,2.9,0.8,2.9,2.5v0.9c-1.2-0.3-2.1-0.4-3.3-0.4
				c-3.7,0-5.3,2.1-5.3,4.4c0,2.6,1.8,4.6,5.4,4.6c2.7,0,4.7-1,5.5-1.5c0.4-0.3,0.5-0.6,0.5-1v-6.8c0-3.5-2.1-5.1-5.4-5.1
				C43.4,34.4,41.7,34.8,41.1,35.2 M52.9,35.9c-0.4,0.3-0.6,0.5-0.6,1.1v10.3c0,0.8,0.7,1.4,1.4,1.4c0.8,0,1.4-0.6,1.4-1.4v-9.5
				c0.6-0.4,1.8-0.7,3.1-0.7c1.6,0,3.1,0.9,3.1,3v7.2c0,0.8,0.7,1.4,1.4,1.4c0.8,0,1.4-0.6,1.4-1.4V40c0-3.5-1.9-5.5-5.8-5.5
				C55.5,34.4,53.6,35.3,52.9,35.9 M28.6,43.1c-0.1-0.8-0.1-2.4,0-3.1c0.1-1.9,1.1-2.9,3.1-2.9c1.4,0,2.7,0.5,3.2,0.8v7.3
				c-0.5,0.4-1.9,0.9-3,0.9C29.9,46.2,28.8,45.1,28.6,43.1 M34.9,31.2v3.9c-0.9-0.4-2.2-0.8-3.4-0.8c-3.4,0-5.3,2-5.6,5.3
				c-0.1,0.9-0.1,2.8,0,3.7c0.3,3.2,2.4,5.4,6,5.4c2.6,0,4.7-1.1,5.4-1.6c0.4-0.3,0.5-0.6,0.5-1V31.2c0-0.8-0.6-1.4-1.4-1.4
				C35.5,29.8,34.9,30.5,34.9,31.2 M65.7,31.2c0,0.9,0.7,1.6,1.6,1.6s1.6-0.7,1.6-1.6c0-0.9-0.7-1.5-1.6-1.5S65.7,30.4,65.7,31.2"/>
		</g>
		<path class="st5" d="M75.3,30v18.7c0,0.1,0.1,0.1,0.3,0.1c0.2,0,0.3-0.1,0.3-0.1V30c0-0.1-0.1-0.1-0.3-0.1S75.3,29.9,75.3,30
			L75.3,30z"/>
		<g>
			<path class="st6" d="M98.3,39.1c-0.2-0.4-0.4-0.8-0.7-1.1c-0.3-0.3-0.7-0.6-1.1-0.7C96.1,37.1,95.6,37,95,37
				c-0.5,0-1,0.1-1.4,0.2c-0.4,0.2-0.8,0.4-1.1,0.7s-0.6,0.6-0.8,1.1c-0.2,0.4-0.3,0.9-0.4,1.4c0,0.1,0,0.3,0,0.4c0,0.2,0,0.3,0,0.5
				s0,0.4,0,0.5c0,0.2,0,0.3,0,0.5c0,0.5,0.1,1,0.3,1.4c0.2,0.4,0.4,0.8,0.8,1.1c0.3,0.3,0.7,0.5,1.2,0.7c0.4,0.2,1,0.3,1.5,0.3
				c0.2,0,0.5,0,0.7,0s0.5-0.1,0.7-0.1s0.4-0.1,0.6-0.2c0.2-0.1,0.4-0.1,0.5-0.2c0.2-0.1,0.3-0.2,0.4-0.3s0.1-0.3,0.1-0.4
				c0-0.1,0-0.2-0.1-0.3s-0.1-0.2-0.2-0.3s-0.2-0.1-0.4-0.1s-0.3,0-0.5,0.1c-0.3,0.1-0.6,0.2-0.9,0.3s-0.6,0.1-0.9,0.1
				c-0.6,0-1.1-0.2-1.5-0.5C93.2,43.5,93,43,93,42.4v-0.2h4.6c0.4,0,0.6-0.1,0.8-0.3c0.2-0.2,0.3-0.4,0.3-0.7v-0.5
				C98.5,40.1,98.5,39.6,98.3,39.1z M96.7,40.8H93c0-0.7,0.1-1.2,0.5-1.6c0.3-0.4,0.9-0.6,1.5-0.6s1.1,0.2,1.5,0.6
				c0.4,0.4,0.5,0.9,0.5,1.5C96.9,40.7,96.8,40.8,96.7,40.8z"/>
			<path class="st6" d="M89.4,44.3l-2.6-3.2c0.4-0.1,0.7-0.2,1-0.4s0.6-0.4,0.8-0.6c0.2-0.3,0.4-0.6,0.5-0.9
				c0.1-0.4,0.2-0.8,0.2-1.3c0-0.6-0.1-1.1-0.3-1.5c-0.2-0.4-0.5-0.8-0.8-1.1s-0.7-0.5-1.2-0.7c-0.4-0.2-0.9-0.2-1.4-0.2h-3.3
				c-0.4,0-0.7,0.1-0.9,0.4c-0.2,0.2-0.3,0.5-0.3,0.9V45c0,0.3,0.1,0.5,0.2,0.6c0.2,0.2,0.4,0.3,0.6,0.3s0.4-0.1,0.6-0.3
				s0.3-0.4,0.3-0.6v-3.4h1.7c0.2,0,0.4,0.1,0.5,0.1c0.1,0.1,0.3,0.2,0.4,0.4l2.8,3.5c0.2,0.2,0.4,0.3,0.6,0.3s0.5-0.1,0.6-0.2
				c0.2-0.2,0.3-0.3,0.3-0.6C89.6,44.7,89.6,44.5,89.4,44.3z M82.7,39.9v-3.8h2.7c0.7,0,1.3,0.2,1.6,0.5c0.3,0.3,0.5,0.8,0.5,1.4
				s-0.2,1.1-0.5,1.4c-0.3,0.3-0.9,0.5-1.7,0.5C85.3,39.9,82.7,39.9,82.7,39.9z"/>
			<path class="st6" d="M126.9,37.2c-0.1-0.1-0.3-0.1-0.4-0.1c-0.2,0-0.4,0.1-0.5,0.2c-0.1,0.1-0.3,0.3-0.3,0.5l-2,5.2
				c0,0,0,0-0.1,0h-0.1l-2.2-5.2c-0.1-0.2-0.2-0.3-0.3-0.5c-0.1-0.1-0.3-0.2-0.6-0.2c-0.1,0-0.3,0-0.4,0.1s-0.2,0.2-0.3,0.3
				c-0.1,0.1-0.1,0.2-0.1,0.4c0,0.1,0,0.3,0.1,0.5l2.9,6.8c-0.2,0.6-0.5,1.1-0.8,1.4c-0.3,0.4-0.6,0.6-0.9,0.8
				c-0.1,0.1-0.2,0.2-0.3,0.3c-0.1,0.1-0.1,0.3-0.1,0.4c0,0.2,0.1,0.4,0.2,0.6c0.2,0.1,0.3,0.2,0.6,0.2c0.2,0,0.5-0.1,0.7-0.2
				c0.3-0.2,0.7-0.6,1.1-1.1c0.4-0.5,0.8-1.2,1.1-1.9l3-7.2c0.1-0.2,0.1-0.3,0.1-0.5c0-0.1-0.1-0.3-0.1-0.4
				C127.1,37.4,127,37.3,126.9,37.2L126.9,37.2z"/>
			<path class="st6" d="M106.2,37.8c-0.6-0.5-1.4-0.7-2.5-0.7c-0.5,0-1,0.1-1.4,0.2c-0.5,0.1-0.8,0.2-1,0.3s-0.4,0.2-0.4,0.4
				c-0.1,0.2-0.1,0.3-0.1,0.4c0,0.3,0.1,0.4,0.3,0.6c0.2,0.2,0.5,0.2,0.9,0.1c0.2-0.1,0.5-0.2,0.8-0.2c0.3-0.1,0.6-0.1,1-0.1
				c0.6,0,1.1,0.1,1.4,0.4c0.3,0.3,0.4,0.6,0.4,1.2v0.5c-0.4-0.1-0.7-0.2-1-0.2c-0.3-0.1-0.6-0.1-1-0.1c-0.6,0-1.1,0.1-1.5,0.2
				c-0.4,0.1-0.7,0.3-1,0.6s-0.5,0.5-0.6,0.9c-0.1,0.3-0.2,0.7-0.2,1c0,0.4,0.1,0.8,0.2,1.1s0.3,0.6,0.6,0.9c0.3,0.3,0.6,0.4,1,0.6
				c0.4,0.2,0.9,0.2,1.4,0.2c0.4,0,0.8,0,1.2-0.1c0.4-0.1,0.7-0.2,1-0.2c0.3-0.1,0.5-0.2,0.7-0.3s0.4-0.2,0.5-0.3s0.2-0.2,0.2-0.3
				c0.1-0.1,0.1-0.2,0.1-0.4v-4.2C107.1,39.1,106.8,38.3,106.2,37.8z M105.5,43.9c-0.1,0.1-0.3,0.2-0.6,0.3
				c-0.3,0.1-0.7,0.2-1.3,0.2s-1-0.1-1.3-0.3s-0.4-0.6-0.4-1s0.2-0.7,0.5-0.9s0.7-0.3,1.2-0.3c0.4,0,0.7,0,1,0.1s0.6,0.1,1,0.2
				L105.5,43.9L105.5,43.9z"/>
			<path class="st6" d="M110.3,34.2c-0.2,0-0.5,0.1-0.6,0.3c-0.2,0.2-0.2,0.4-0.2,0.6v9.8c0,0.2,0.1,0.5,0.3,0.6
				c0.2,0.2,0.4,0.3,0.6,0.3s0.5-0.1,0.6-0.3c0.2-0.2,0.2-0.4,0.2-0.6v-9.8c0-0.2-0.1-0.5-0.3-0.6C110.8,34.3,110.6,34.2,110.3,34.2
				L110.3,34.2z"/>
			<path class="st6" d="M118.4,44.1c-0.1-0.1-0.2-0.1-0.3-0.2c-0.1,0-0.3,0-0.4,0c-0.2,0.1-0.4,0.1-0.6,0.2
				c-0.2,0.1-0.4,0.1-0.6,0.1c-0.4,0-0.7-0.1-0.9-0.3c-0.2-0.2-0.3-0.5-0.3-0.9v-4h2.2c0.2,0,0.4-0.1,0.6-0.2
				c0.2-0.1,0.2-0.3,0.2-0.5s-0.1-0.4-0.2-0.5c-0.2-0.1-0.3-0.2-0.6-0.2h-2.2v-1.2c0-0.2-0.1-0.5-0.3-0.6c-0.2-0.2-0.4-0.3-0.6-0.3
				s-0.5,0.1-0.6,0.3c-0.2,0.2-0.2,0.4-0.2,0.6v6.7c0,0.4,0.1,0.8,0.2,1.1c0.1,0.4,0.3,0.7,0.5,0.9c0.2,0.3,0.5,0.5,0.8,0.6
				s0.7,0.2,1.2,0.2c0.3,0,0.6,0,1-0.1c0.3,0,0.6-0.1,0.9-0.2c0.2-0.1,0.4-0.2,0.5-0.3s0.1-0.3,0.1-0.5c0-0.1,0-0.2-0.1-0.3
				C118.5,44.3,118.5,44.2,118.4,44.1L118.4,44.1z"/>
		</g>
	</g>
	<g>
		<g>
			<path d="M10.4,61.6H8.1l-0.4,1.1H6.5l2-5.6h1.4l2,5.6h-1.2L10.4,61.6z M10,60.7l-0.8-2.4l-0.8,2.4H10z"/>
			<path d="M13.7,57.1v3.5c0,0.4,0.1,0.7,0.3,0.9c0.2,0.2,0.5,0.3,0.8,0.3c0.4,0,0.7-0.1,0.9-0.3c0.2-0.2,0.3-0.5,0.3-0.9v-3.5h1.2
				v3.5c0,0.5-0.1,0.9-0.3,1.2c-0.2,0.3-0.5,0.6-0.8,0.8c-0.4,0.2-0.7,0.3-1.2,0.3c-0.4,0-0.8-0.1-1.2-0.3c-0.3-0.2-0.6-0.4-0.8-0.8
				c-0.2-0.3-0.3-0.7-0.3-1.2v-3.5H13.7z"/>
			<path d="M22.1,57.1V58h-1.5v4.7h-1.1V58H18v-0.9H22.1z"/>
			<path d="M27.6,57.1v5.6h-1.1v-2.4h-2.4v2.4H23v-5.6h1.1v2.3h2.4v-2.3H27.6z"/>
			<path d="M29.8,62.4c-0.4-0.3-0.8-0.6-1.1-1s-0.4-0.9-0.4-1.5s0.1-1.1,0.4-1.5s0.6-0.8,1.1-1c0.4-0.3,0.9-0.4,1.5-0.4
				c0.5,0,1,0.1,1.5,0.4c0.4,0.2,0.8,0.6,1.1,1s0.4,0.9,0.4,1.5s-0.1,1.1-0.4,1.5s-0.6,0.8-1.1,1c-0.4,0.3-0.9,0.4-1.5,0.4
				C30.8,62.8,30.3,62.6,29.8,62.4z M32.2,61.5c0.3-0.2,0.5-0.4,0.6-0.7s0.2-0.6,0.2-1s-0.1-0.7-0.2-1c-0.1-0.3-0.4-0.5-0.6-0.7
				C31.9,58,31.6,58,31.3,58s-0.6,0.1-0.9,0.2c-0.3,0.2-0.5,0.4-0.6,0.7c-0.2,0.3-0.2,0.7-0.2,1c0,0.4,0.1,0.7,0.2,1
				c0.1,0.3,0.4,0.5,0.6,0.7c0.3,0.2,0.6,0.2,0.9,0.2C31.7,61.7,32,61.7,32.2,61.5z"/>
			<path d="M37.9,62.7l-1.2-2.2h-0.5v2.2h-1.1v-5.6h2.1c0.4,0,0.8,0.1,1.1,0.2c0.3,0.2,0.5,0.4,0.7,0.6c0.2,0.3,0.2,0.6,0.2,0.9
				c0,0.4-0.1,0.7-0.3,1s-0.5,0.5-1,0.6l1.4,2.3H37.9L37.9,62.7z M36.1,59.6h1c0.3,0,0.5-0.1,0.7-0.2C38,59.3,38,59,38,58.8
				c0-0.3-0.1-0.5-0.2-0.6c-0.2-0.1-0.4-0.2-0.7-0.2h-1V59.6z"/>
			<path d="M41.4,57.1v5.6h-1.1v-5.6H41.4z"/>
			<path d="M43.3,62.6c-0.3-0.1-0.6-0.3-0.8-0.6s-0.3-0.6-0.3-0.9h1.2c0,0.2,0.1,0.4,0.2,0.6c0.1,0.1,0.4,0.2,0.6,0.2
				c0.3,0,0.5-0.1,0.6-0.2c0.2-0.1,0.2-0.3,0.2-0.5s-0.1-0.3-0.2-0.4c-0.1-0.1-0.2-0.2-0.4-0.3s-0.4-0.1-0.6-0.2
				c-0.4-0.1-0.7-0.2-0.9-0.3s-0.4-0.3-0.6-0.5c-0.2-0.2-0.2-0.5-0.2-0.9c0-0.3,0.1-0.6,0.3-0.9c0.2-0.3,0.4-0.4,0.7-0.6
				c0.3-0.1,0.7-0.2,1-0.2c0.6,0,1.1,0.1,1.4,0.4c0.4,0.3,0.6,0.7,0.6,1.2h-1.3c0-0.2-0.1-0.4-0.2-0.5c-0.2-0.1-0.4-0.2-0.6-0.2
				s-0.4,0.2-0.5,0.3c0,0.1-0.1,0.3-0.1,0.5s0.1,0.3,0.2,0.4c0.1,0.1,0.2,0.2,0.4,0.2c0.1,0.1,0.4,0.1,0.6,0.2
				c0.4,0.1,0.7,0.2,0.9,0.3s0.4,0.3,0.6,0.5c0.2,0.2,0.3,0.5,0.3,0.9c0,0.3-0.1,0.6-0.2,0.8c-0.2,0.3-0.4,0.5-0.7,0.6
				c-0.3,0.2-0.7,0.2-1.1,0.2C44,62.8,43.6,62.7,43.3,62.6z"/>
			<path d="M48.5,58v1.4h1.9v0.9h-1.9v1.5h2.2v0.9h-3.3V57h3.3v0.9L48.5,58L48.5,58z"/>
			<path d="M55.2,57.4c0.5,0.2,0.8,0.6,1.1,1c0.2,0.4,0.4,0.9,0.4,1.5s-0.1,1.1-0.4,1.5c-0.2,0.4-0.6,0.8-1.1,1s-1,0.4-1.6,0.4h-2
				v-5.6h2C54.2,57.1,54.7,57.2,55.2,57.4z M54.9,61.2c0.3-0.3,0.5-0.8,0.5-1.4c0-0.6-0.1-1-0.5-1.3c-0.3-0.3-0.8-0.5-1.4-0.5h-0.8
				v3.7h0.8C54.1,61.7,54.6,61.6,54.9,61.2z"/>
			<path d="M59.4,58.4c0.3-0.4,0.6-0.8,1-1s0.9-0.4,1.5-0.4s1.2,0.2,1.7,0.5s0.8,0.8,1,1.4h-1.3c-0.1-0.3-0.3-0.5-0.6-0.6
				c-0.2-0.1-0.5-0.2-0.8-0.2s-0.6,0.1-0.9,0.2c-0.3,0.2-0.5,0.4-0.6,0.7s-0.2,0.6-0.2,1s0.1,0.7,0.2,1s0.3,0.5,0.6,0.7
				c0.3,0.2,0.6,0.2,0.9,0.2s0.6-0.1,0.8-0.2c0.2-0.1,0.4-0.3,0.6-0.6h1.3c-0.2,0.6-0.5,1-1,1.4c-0.5,0.3-1,0.5-1.7,0.5
				c-0.5,0-1-0.1-1.5-0.4c-0.4-0.2-0.8-0.6-1-1c-0.3-0.4-0.4-0.9-0.4-1.5C59,59.3,59.1,58.9,59.4,58.4z"/>
			<path d="M70.2,57.1v5.6h-1.1v-2.4h-2.4v2.4h-1.1v-5.6h1.1v2.3h2.4v-2.3H70.2z"/>
			<path d="M74.7,61.6h-2.2l-0.4,1.1h-1.2l2-5.6h1.3l2,5.6H75L74.7,61.6z M74.4,60.7l-0.8-2.4l-0.8,2.4H74.4z"/>
			<path d="M81.8,62.7h-1.1l-2.6-3.8v3.8H77v-5.6h1.1l2.6,3.8v-3.8h1.1V62.7z"/>
			<path d="M87.8,62.7h-1.1l-2.6-3.8v3.8H83v-5.6h1.1l2.6,3.8v-3.8h1.1V62.7z"/>
			<path d="M90,58v1.4h1.9v0.9H90v1.5h2.2v0.9h-3.3V57h3.3v0.9L90,58L90,58z"/>
			<path d="M94.4,61.8h1.9v0.9h-3v-5.6h1.1V61.8z"/>
			<path d="M102.8,59.6c-0.1,0.3-0.4,0.5-0.7,0.6c-0.3,0.2-0.7,0.2-1.2,0.2h-1v2.2h-1.1V57h2.1c0.4,0,0.8,0.1,1.1,0.2
				c0.3,0.2,0.5,0.4,0.7,0.6c0.2,0.3,0.2,0.6,0.2,0.9C103,59.1,102.9,59.4,102.8,59.6z M101.6,59.4c0.2-0.1,0.2-0.3,0.2-0.6
				c0-0.6-0.3-0.8-0.9-0.8H100v1.7h0.9C101.2,59.6,101.4,59.5,101.6,59.4z"/>
			<path d="M107.2,61.6h-2.3l-0.4,1.1h-1.2l2-5.6h1.3l2,5.6h-1.2L107.2,61.6z M106.9,60.7l-0.8-2.4l-0.8,2.4H106.9z"/>
			<path d="M112.4,62.7l-1.3-2.2h-0.5v2.2h-1.1v-5.6h2.1c0.4,0,0.8,0.1,1.1,0.2c0.3,0.2,0.5,0.4,0.7,0.6c0.2,0.3,0.2,0.6,0.2,0.9
				c0,0.4-0.1,0.7-0.3,1c-0.2,0.3-0.5,0.5-1,0.6l1.4,2.3H112.4L112.4,62.7z M110.6,59.6h1c0.3,0,0.5-0.1,0.7-0.2
				c0.2-0.1,0.2-0.4,0.2-0.6c0-0.3-0.1-0.5-0.2-0.6c-0.2-0.1-0.4-0.2-0.7-0.2h-1V59.6z"/>
			<path d="M118.4,57.1V58h-1.5v4.7h-1.1V58h-1.5v-0.9H118.4z"/>
			<path d="M124.1,62.7H123l-2.6-3.8v3.8h-1.1v-5.6h1.1l2.6,3.8v-3.8h1.1V62.7z"/>
			<path d="M126.3,58v1.4h1.9v0.9h-1.9v1.5h2.2v0.9h-3.3V57h3.3v0.9L126.3,58L126.3,58z"/>
			<path d="M132.5,62.7l-1.3-2.2h-0.5v2.2h-1.1v-5.6h2.1c0.4,0,0.8,0.1,1.1,0.2c0.3,0.2,0.5,0.4,0.7,0.6c0.2,0.3,0.2,0.6,0.2,0.9
				c0,0.4-0.1,0.7-0.3,1s-0.5,0.5-1,0.6l1.4,2.3H132.5L132.5,62.7z M130.7,59.6h1c0.3,0,0.5-0.1,0.7-0.2c0.2-0.1,0.2-0.4,0.2-0.6
				c0-0.3-0.1-0.5-0.2-0.6c-0.2-0.1-0.4-0.2-0.7-0.2h-1V59.6z"/>
		</g>
		<g>
			<path class="st7" d="M35.8,74.2c-0.9,0-1.7-0.3-2.2-0.8s-0.8-1.2-0.8-2.1s0.3-1.6,0.8-2.2c0.5-0.5,1.3-0.8,2.2-0.8
				s1.6,0.3,2.2,0.8c0.5,0.5,0.8,1.2,0.8,2.1s-0.3,1.7-0.8,2.2C37.5,73.9,36.8,74.2,35.8,74.2z M35.9,69.6c-0.4,0-0.7,0.1-0.9,0.4
				s-0.3,0.7-0.3,1.2c0,1.1,0.4,1.6,1.3,1.6c0.8,0,1.2-0.5,1.2-1.6C37.1,70.2,36.7,69.6,35.9,69.6z"/>
			<path class="st7" d="M48.8,74h-1.7v-3.2c0-0.8-0.3-1.2-0.9-1.2c-0.3,0-0.5,0.1-0.7,0.4c-0.2,0.2-0.3,0.5-0.3,0.9V74h-1.7v-3.2
				c0-0.8-0.3-1.2-0.9-1.2c-0.3,0-0.5,0.1-0.7,0.3c-0.2,0.2-0.3,0.5-0.3,0.9V74h-1.7v-5.6h1.7v0.9l0,0c0.2-0.3,0.4-0.5,0.7-0.7
				s0.7-0.3,1.1-0.3c0.8,0,1.3,0.3,1.6,1c0.4-0.7,1-1,1.9-1c1.2,0,1.8,0.7,1.8,2.2V74H48.8z"/>
			<path class="st7" d="M55.1,71.7h-3.6c0.1,0.8,0.6,1.2,1.5,1.2c0.6,0,1.1-0.1,1.6-0.4v1.2c-0.5,0.3-1.2,0.4-2,0.4
				c-0.9,0-1.6-0.3-2.1-0.7c-0.5-0.5-0.7-1.2-0.7-2.1s0.3-1.6,0.8-2.2c0.5-0.5,1.2-0.8,2-0.8s1.4,0.2,1.9,0.7c0.4,0.5,0.7,1.1,0.7,2
				v0.7C55.2,71.7,55.1,71.7,55.1,71.7z M53.5,70.7c0-0.8-0.3-1.2-1-1.2c-0.3,0-0.5,0.1-0.7,0.3c-0.2,0.2-0.3,0.5-0.4,0.8L53.5,70.7
				L53.5,70.7z"/>
			<path class="st7" d="M90.4,74.2c-0.3,0-0.5-0.1-0.7-0.3s-0.2-0.4-0.2-0.6c0-0.3,0.1-0.5,0.3-0.6c0.2-0.2,0.4-0.2,0.7-0.2
				c0.3,0,0.5,0.1,0.7,0.3c0.2,0.2,0.3,0.4,0.3,0.6c0,0.3-0.1,0.5-0.3,0.6S90.8,74.2,90.4,74.2z"/>
			<path class="st7" d="M96.9,73.8c-0.4,0.2-0.9,0.3-1.7,0.3c-0.8,0-1.5-0.3-2.1-0.8c-0.5-0.5-0.8-1.2-0.8-2c0-0.9,0.3-1.7,0.8-2.2
				s1.3-0.8,2.3-0.8c0.7,0,1.1,0.1,1.4,0.3v1.5c-0.4-0.3-0.8-0.4-1.2-0.4c-0.5,0-0.9,0.1-1.2,0.4c-0.3,0.3-0.4,0.7-0.4,1.2
				s0.1,0.9,0.4,1.2s0.7,0.4,1.1,0.4s0.8-0.1,1.3-0.4L96.9,73.8L96.9,73.8z"/>
			<path class="st7" d="M100.7,74.2c-0.9,0-1.7-0.3-2.2-0.8s-0.8-1.2-0.8-2.1s0.3-1.6,0.8-2.2c0.6-0.5,1.3-0.8,2.2-0.8
				c0.9,0,1.6,0.3,2.2,0.8c0.5,0.5,0.8,1.2,0.8,2.1s-0.3,1.7-0.8,2.2C102.3,73.9,101.6,74.2,100.7,74.2z M100.7,69.6
				c-0.4,0-0.7,0.1-0.9,0.4c-0.2,0.3-0.3,0.7-0.3,1.2c0,1.1,0.4,1.6,1.3,1.6c0.8,0,1.2-0.5,1.2-1.6
				C101.9,70.2,101.5,69.6,100.7,69.6z"/>
			<path class="st7" d="M113.6,74h-1.7v-3.2c0-0.8-0.3-1.2-0.9-1.2c-0.3,0-0.5,0.1-0.7,0.4c-0.2,0.2-0.3,0.5-0.3,0.9V74h-1.7v-3.2
				c0-0.8-0.3-1.2-0.9-1.2c-0.3,0-0.5,0.1-0.7,0.3c-0.2,0.2-0.3,0.5-0.3,0.9V74h-1.7v-5.6h1.7v0.9l0,0c0.2-0.3,0.4-0.5,0.7-0.7
				c0.3-0.2,0.7-0.3,1.1-0.3c0.8,0,1.3,0.3,1.6,1c0.4-0.7,1-1,1.9-1c1.2,0,1.8,0.7,1.8,2.2L113.6,74L113.6,74z"/>
			<path class="st8" d="M57.9,73.4L57.9,73.4V74h-1.7v-8.2h1.7v3.5l0,0c0.4-0.6,1-1,1.8-1c0.7,0,1.3,0.2,1.7,0.7s0.6,1.2,0.6,2
				c0,0.9-0.2,1.7-0.7,2.2c-0.5,0.6-1.1,0.8-1.8,0.8C58.7,74.2,58.2,73.9,57.9,73.4z M57.8,71v0.6c0,0.4,0.1,0.7,0.3,0.9
				c0.2,0.2,0.5,0.4,0.8,0.4c0.4,0,0.7-0.2,0.9-0.5c0.2-0.3,0.3-0.7,0.3-1.3c0-0.5-0.1-0.8-0.3-1.1c-0.2-0.3-0.5-0.4-0.8-0.4
				s-0.6,0.1-0.9,0.4C57.9,70.3,57.8,70.6,57.8,71z"/>
			<path class="st8" d="M67.5,74h-1.6v-0.8l0,0c-0.4,0.6-0.9,0.9-1.7,0.9c-0.5,0-1-0.2-1.3-0.5c-0.2-0.2-0.4-0.6-0.4-1.1
				c0-1.1,0.6-1.7,1.9-1.9l1.5-0.2c0-0.6-0.3-0.9-1-0.9s-1.3,0.2-1.9,0.6v-1.3c0.2-0.1,0.6-0.2,1-0.3c0.4-0.1,0.8-0.1,1.1-0.1
				c1.6,0,2.4,0.8,2.4,2.4V74z M65.9,71.8v-0.4l-1,0.1c-0.6,0.1-0.8,0.3-0.8,0.8c0,0.2,0.1,0.4,0.2,0.5s0.3,0.2,0.6,0.2
				s0.6-0.1,0.8-0.3C65.8,72.4,65.9,72.1,65.9,71.8z"/>
			<polygon class="st8" points="73.3,74 68.3,74 68.3,73.3 71.1,69.7 68.6,69.7 68.6,68.5 73.3,68.5 73.3,69.3 70.6,72.8 73.3,72.8 
							"/>
			<path class="st8" d="M78.8,74h-1.6v-0.8l0,0c-0.4,0.6-0.9,0.9-1.7,0.9c-0.5,0-1-0.2-1.3-0.5s-0.5-0.7-0.5-1.2
				c0-1.1,0.6-1.7,1.9-1.9l1.5-0.2c0-0.6-0.3-0.9-1-0.9s-1.3,0.2-1.9,0.6v-1.3c0.2-0.1,0.6-0.2,1-0.3c0.4-0.1,0.8-0.1,1.1-0.1
				c1.6,0,2.4,0.8,2.4,2.4L78.8,74L78.8,74z M77.2,71.8v-0.4l-1,0.1c-0.6,0.1-0.8,0.3-0.8,0.8c0,0.2,0.1,0.4,0.2,0.5
				s0.3,0.2,0.5,0.2c0.3,0,0.6-0.1,0.8-0.3C77.1,72.4,77.2,72.1,77.2,71.8z"/>
			<path class="st8" d="M84.8,74h-1.6v-0.8l0,0c-0.4,0.6-0.9,0.9-1.7,0.9c-0.5,0-1-0.2-1.3-0.5s-0.5-0.7-0.5-1.2
				c0-1.1,0.6-1.7,1.9-1.9l1.5-0.2c0-0.6-0.3-0.9-1-0.9s-1.3,0.2-1.9,0.6v-1.3c0.2-0.1,0.6-0.2,1-0.3c0.4-0.1,0.8-0.1,1.1-0.1
				c1.6,0,2.4,0.8,2.4,2.4L84.8,74L84.8,74z M83.2,71.8v-0.4l-1,0.1c-0.6,0.1-0.8,0.3-0.8,0.8c0,0.2,0.1,0.4,0.2,0.5
				s0.3,0.2,0.6,0.2s0.6-0.1,0.8-0.3C83.1,72.4,83.2,72.1,83.2,71.8z"/>
			<path class="st8" d="M89.8,70c-0.2-0.1-0.4-0.2-0.7-0.2c-0.4,0-0.7,0.1-0.9,0.4c-0.2,0.3-0.3,0.6-0.3,1.1V74h-1.7v-5.6h1.7v1l0,0
				c0.3-0.8,0.8-1.1,1.5-1.1c0.2,0,0.3,0,0.4,0.1V70z"/>
			<g>
				<polygon class="st9" points="25.2,68.2 27.2,68.2 27.2,69.5 25.2,70.9 				"/>
				<polygon class="st9" points="31.9,68.2 29.9,68.2 29.9,69.5 31.9,70.9 				"/>
				<polygon class="st10" points="28.6,69.2 24.6,72.1 25.4,72.1 25.4,74.3 27.1,74.3 27.1,72 28.6,70.9 30.1,72 30.1,74.3 
					31.8,74.3 31.8,72.1 32.6,72.1 				"/>
			</g>
			<path class="st8" d="M114.2,66.9L114.2,66.9L114.2,66.9L114.2,66.9C114.2,66.9,114.2,67,114.2,66.9l-0.3,0.1v0.9l0,0l0,0l0,0
				c0,0,0,0-0.1,0c0,0,0,0-0.1,0l0,0l0,0l0,0V67h-0.3l0,0l0,0l0,0l0,0l0,0l0,0l0,0l0,0L114.2,66.9C114.2,66.8,114.2,66.8,114.2,66.9
				C114.2,66.8,114.2,66.8,114.2,66.9C114.2,66.8,114.2,66.8,114.2,66.9C114.2,66.8,114.2,66.8,114.2,66.9z"/>
			<path class="st8" d="M115.7,67.9L115.7,67.9C115.6,67.9,115.6,67.9,115.7,67.9C115.6,67.9,115.6,67.9,115.7,67.9
				C115.6,67.9,115.6,67.9,115.7,67.9c-0.1,0-0.1,0-0.2,0l0,0l0,0l0,0V67l0,0l-0.3,0.9l0,0l0,0l0,0c0,0,0,0-0.1,0c0,0,0,0-0.1,0l0,0
				l0,0l0,0l-0.3-0.9l0,0v0.9l0,0l0,0l0,0c0,0,0,0-0.1,0s0,0-0.1,0l0,0l0,0l0,0v-1v-0.1c0,0,0,0,0.1,0h0.2h0.1c0,0,0,0,0.1,0l0,0
				c0,0,0,0,0,0.1l0.2,0.7l0,0l0.3-0.7v-0.1l0,0l0,0c0,0,0,0,0.1,0h0.2l0,0l0,0l0,0l0,0L115.7,67.9L115.7,67.9z"/>
		</g>
	</g>
</g>
</svg>
